# Blender 5.0.1
# www.blender.org
o plus-one
v -0.200000 0.000000 -0.100000
v 0.300000 0.800000 0.200000
v 0.200000 0.000000 -0.100000
v -0.300000 0.800000 0.200000
v -0.200000 0.000000 0.100000
v 0.300000 0.800000 -0.200000
v 0.200000 0.000000 0.100000
v -0.300000 0.800000 -0.200000
v 0.150000 1.500000 0.150000
v 0.150000 1.800000 0.150000
v -0.150000 1.500000 0.150000
v -0.150000 1.800000 0.150000
v 0.150000 1.500000 -0.150000
v 0.150000 1.800000 -0.150000
v -0.150000 1.500000 -0.150000
v -0.150000 1.800000 -0.150000
v 0.300000 1.500000 0.200000
v -0.300000 1.500000 0.200000
v 0.300000 1.500000 -0.200000
v -0.300000 1.500000 -0.200000
v -0.400000 3.800000 0.000000
v -0.200000 3.800000 0.000000
v -0.400000 3.900000 -0.000000
v -0.200000 3.900000 -0.000000
v -0.100000 3.800000 0.000000
v -0.100000 3.900000 -0.000000
v 0.100000 3.800000 0.000000
v 0.100000 3.900000 -0.000000
v -0.201498 4.100000 -0.000000
v -0.100000 4.100000 -0.000000
v -0.200000 3.600000 0.000000
v -0.100000 3.600000 0.000000
v 0.200000 3.500000 -0.000000
v 0.300000 3.500000 -0.000000
v 0.198502 4.200000 -0.000000
v 0.300000 4.200000 -0.000000
v 0.200000 0.800000 0.150000
v -0.200000 0.800000 0.150000
v 0.200000 0.800000 -0.150000
v -0.200000 0.800000 -0.150000
v -0.430000 3.770000 -0.020000
v -0.230000 3.770000 -0.020000
v -0.430000 3.930000 -0.020000
v -0.230000 3.930000 -0.020000
v -0.070000 3.770000 -0.020000
v -0.070000 3.930000 -0.020000
v 0.130000 3.770000 -0.020000
v 0.130000 3.930000 -0.020000
v -0.231498 4.130000 -0.020000
v -0.070000 4.130000 -0.020000
v -0.230000 3.570000 -0.020000
v -0.070000 3.570000 -0.020000
v 0.170000 3.470000 -0.020000
v 0.330000 3.470000 -0.020000
v 0.168502 4.230000 -0.020000
v 0.330000 4.230000 -0.020000
vn -0.0000 -1.0000 -0.0000
vn 1.0000 -0.0000 -0.0000
vn -1.0000 -0.0000 -0.0000
vn -0.0000 -0.0000 1.0000
vn -0.0000 -0.0000 -1.0000
vn -0.0000 1.0000 -0.0000
vn -0.0000 -0.0624 -0.9981
vn -0.0000 -0.0624 0.9981
vt 0.375488 0.610790
vt 0.630371 0.609813
vt 0.136231 0.375438
vt 0.595446 0.660998
vt 0.122636 0.882676
s 0
f 7/1/1 5/1/1 1/1/1 3/1/1
f 2/2/1 4/2/1 8/2/1 6/2/1
f 7/1/2 3/1/2 39/1/2 37/1/2
f 1/1/3 5/1/3 38/1/3 40/1/3
f 2/2/2 6/2/2 19/2/2 17/2/2
f 9/3/4 10/3/4 12/3/4 11/3/4
f 11/3/3 12/3/3 16/3/3 15/3/3
f 15/3/5 16/3/5 14/3/5 13/3/5
f 13/3/2 14/3/2 10/3/2 9/3/2
f 16/3/6 12/3/6 10/3/6 14/3/6
f 20/2/6 18/2/6 17/2/6 19/2/6
f 8/2/3 4/2/3 18/2/3 20/2/3
f 6/2/5 8/2/5 20/2/5 19/2/5
f 4/2/4 2/2/4 17/2/4 18/2/4
f 21/4/4 22/4/4 24/4/4 23/4/4
f 24/4/4 22/4/4 25/4/4 26/4/4
f 26/4/4 25/4/4 27/4/4 28/4/4
f 24/4/4 26/4/4 30/4/4 29/4/4
f 25/4/4 22/4/4 31/4/4 32/4/4
f 33/4/4 34/4/4 36/4/4 35/4/4
f 3/1/7 1/1/7 40/1/7 39/1/7
f 5/1/8 7/1/8 37/1/8 38/1/8
f 41/5/4 42/5/4 44/5/4 43/5/4
f 44/5/4 42/5/4 45/5/4 46/5/4
f 46/5/4 45/5/4 47/5/4 48/5/4
f 44/5/4 46/5/4 50/5/4 49/5/4
f 45/5/4 42/5/4 51/5/4 52/5/4
f 53/5/4 54/5/4 56/5/4 55/5/4
o plus-ten
v -1.000000 0.200000 1.100000
v -1.000000 1.000000 1.100000
v -1.000000 0.200000 -1.300000
v -1.000000 1.000000 -1.300000
v 1.000000 0.200000 1.100000
v 1.000000 1.000000 1.100000
v 1.000000 0.200000 -1.300000
v 1.000000 1.000000 -1.300000
v -0.900000 1.600000 0.600000
v -0.900000 1.600000 -0.800000
v 0.900000 1.600000 0.600000
v 0.900000 1.600000 -0.800000
v -1.000000 0.200000 2.000000
v -1.000000 1.000000 2.000000
v 1.000000 0.200000 2.000000
v 1.000000 1.000000 2.000000
v -1.000000 0.200000 -2.000000
v -1.000000 1.000000 -2.000000
v 1.000000 0.200000 -2.000000
v 1.000000 1.000000 -2.000000
v -1.100000 0.000000 1.500000
v -1.100000 0.700000 1.500000
v -1.100000 0.000000 0.800000
v -1.100000 0.700000 0.800000
v 1.100000 0.000000 1.500000
v 1.100000 0.700000 1.500000
v 1.100000 0.000000 0.800000
v 1.100000 0.700000 0.800000
v -1.100000 0.000000 -0.800000
v -1.100000 0.700000 -0.800000
v -1.100000 0.000000 -1.500000
v -1.100000 0.700000 -1.500000
v 1.100000 0.000000 -0.800000
v 1.100000 0.700000 -0.800000
v 1.100000 0.000000 -1.500000
v 1.100000 0.700000 -1.500000
v -0.883334 3.775000 0.005000
v -0.583334 3.775000 0.005000
v -0.883334 3.925000 0.005000
v -0.583334 3.925000 0.005000
v -0.433334 3.775000 0.005000
v -0.433334 3.925000 0.005000
v -0.133334 3.775000 0.005000
v -0.133334 3.925000 0.005000
v -0.583334 4.225000 0.005000
v -0.433334 4.225000 0.005000
v -0.583334 3.475000 0.005000
v -0.433334 3.475000 0.005000
v 0.316666 3.325000 0.005000
v 0.466666 3.474999 0.005000
v 0.316666 4.375000 0.005000
v 0.466666 4.225000 0.005000
v 0.916667 3.325000 0.005000
v 0.766666 3.474999 0.005000
v 0.916667 4.375000 0.005000
v 0.766666 4.224999 0.005000
v 0.016666 3.325000 0.005000
v 0.166666 3.325000 0.005000
v 0.016666 4.375000 0.005000
v 0.166666 4.375000 0.005000
v -0.400000 1.600000 0.100000
v -0.400000 1.600000 -0.200000
v 0.400000 1.600000 0.100000
v 0.400000 1.600000 -0.200000
v -0.300000 1.800000 -0.000000
v -0.300000 1.800000 -0.100000
v 0.300000 1.800000 -0.000000
v 0.300000 1.800000 -0.100000
v -0.928334 3.730000 -0.025000
v -0.628334 3.730000 -0.025000
v -0.928334 3.970000 -0.025000
v -0.628334 3.970000 -0.025000
v -0.388334 3.730000 -0.025000
v -0.388334 3.970000 -0.025000
v -0.088334 3.730000 -0.025000
v -0.088334 3.970000 -0.025000
v -0.628334 4.270000 -0.025000
v -0.388334 4.270000 -0.025000
v -0.628334 3.430000 -0.025000
v -0.388334 3.430000 -0.025000
v 0.271666 3.280000 -0.025000
v 0.511666 3.520000 -0.025000
v 0.271666 4.420000 -0.025000
v 0.511666 4.180000 -0.025000
v 0.961667 3.280000 -0.025000
v 0.721666 3.520000 -0.025000
v 0.961667 4.420000 -0.025000
v 0.721666 4.179999 -0.025000
v -0.028334 3.280000 -0.025000
v 0.211666 3.280000 -0.025000
v -0.028334 4.420000 -0.025000
v 0.211666 4.420000 -0.025000
vn -1.0000 -0.0000 -0.0000
vn -0.0000 1.0000 -0.0000
vn 1.0000 -0.0000 -0.0000
vn -0.0000 0.6402 -0.7682
vn 0.9864 0.1644 -0.0000
vn -0.9864 0.1644 -0.0000
vn -0.0000 0.6402 0.7682
vn -0.0000 -0.0000 1.0000
vn -0.0000 -0.0000 -1.0000
vn -0.0000 0.4472 -0.8944
vn 0.8944 0.4472 -0.0000
vn -0.8944 0.4472 -0.0000
vn -0.0000 0.4472 0.8944
vt 0.610547 0.623047
vt 0.364258 0.630859
vt 0.123047 0.618395
vt 0.610547 0.623047
vt 0.862305 0.874023
vt 0.608847 0.585417
vt 0.370329 0.376953
vt 0.111234 0.858252
s 0
f 57/6/9 58/6/9 60/6/9 59/6/9
f 60/7/10 64/7/10 76/7/10 74/7/10
f 63/6/11 64/6/11 62/6/11 61/6/11
f 58/6/9 57/6/9 69/6/9 70/6/9
f 64/8/12 60/8/12 66/8/12 68/8/12
f 68/7/10 66/7/10 65/7/10 67/7/10
f 62/8/13 64/8/13 68/8/13 67/8/13
f 60/8/14 58/8/14 65/8/14 66/8/14
f 58/8/15 62/8/15 67/8/15 65/8/15
f 71/6/16 72/6/16 70/6/16 69/6/16
f 62/7/10 58/7/10 70/7/10 72/7/10
f 61/6/11 62/6/11 72/6/11 71/6/11
f 73/6/17 74/6/17 76/6/17 75/6/17
f 59/6/9 60/6/9 74/9/9 73/6/9
f 64/6/11 63/6/11 75/6/11 76/6/11
f 77/10/9 78/10/9 80/10/9 79/10/9
f 79/10/17 80/10/17 84/10/17 83/10/17
f 83/10/11 84/10/11 82/10/11 81/10/11
f 81/10/16 82/10/16 78/10/16 77/10/16
f 84/10/10 80/10/10 78/10/10 82/10/10
f 85/10/9 86/10/9 88/10/9 87/10/9
f 87/10/17 88/10/17 92/10/17 91/10/17
f 91/10/11 92/10/11 90/10/11 89/10/11
f 89/10/16 90/10/16 86/10/16 85/10/16
f 92/10/10 88/10/10 86/10/10 90/10/10
f 93/11/16 94/11/16 96/11/16 95/11/16
f 96/11/16 94/11/16 97/11/16 98/11/16
f 98/11/16 97/11/16 99/11/16 100/11/16
f 96/11/16 98/11/16 102/11/16 101/11/16
f 97/11/16 94/11/16 103/11/16 104/11/16
f 105/11/16 106/11/16 108/11/16 107/11/16
f 106/11/16 105/11/16 109/11/16 110/11/16
f 110/11/16 109/11/16 111/11/16 112/11/16
f 107/11/16 108/11/16 112/11/16 111/11/16
f 113/11/16 114/11/16 116/11/16 115/11/16
f 120/12/18 118/12/18 122/12/18 124/12/18
f 124/12/10 122/12/10 121/12/10 123/12/10
f 119/12/19 120/12/19 124/12/19 123/12/19
f 118/12/20 117/12/20 121/12/20 122/12/20
f 117/12/21 119/12/21 123/12/21 121/12/21
f 125/13/16 126/13/16 128/13/16 127/13/16
f 128/13/16 126/13/16 129/13/16 130/13/16
f 130/13/16 129/13/16 131/13/16 132/13/16
f 128/13/16 130/13/16 134/13/16 133/13/16
f 129/13/16 126/13/16 135/13/16 136/13/16
f 137/13/16 138/13/16 140/13/16 139/13/16
f 138/13/16 137/13/16 141/13/16 142/13/16
f 142/13/16 141/13/16 143/13/16 144/13/16
f 139/13/16 140/13/16 144/13/16 143/13/16
f 145/13/16 146/13/16 148/13/16 147/13/16
o mult-two
v -0.100000 0.000000 1.500000
v -0.100000 2.000000 1.500000
v -0.100000 0.000000 -1.500000
v -0.100000 2.000000 -1.500000
v 0.100000 0.000000 1.500000
v 0.100000 2.000000 1.500000
v 0.100000 0.000000 -1.500000
v 0.100000 2.000000 -1.500000
v -0.500000 0.500000 1.400000
v -0.500000 0.700000 1.400000
v -0.500000 0.500000 -1.400000
v -0.500000 0.700000 -1.400000
v 0.500000 0.500000 1.400000
v 0.500000 0.700000 1.400000
v 0.500000 0.500000 -1.400000
v 0.500000 0.700000 -1.400000
v -0.600000 2.000000 1.600000
v -0.600000 2.200000 1.600000
v -0.600000 2.000000 -1.600000
v -0.600000 2.200000 -1.600000
v 0.600000 2.000000 1.600000
v 0.600000 2.200000 1.600000
v 0.600000 2.000000 -1.600000
v 0.600000 2.200000 -1.600000
v -0.500000 0.000000 -0.700000
v -0.500000 0.700000 -0.200000
v -0.500000 0.000000 -0.300000
v -0.500000 0.700000 -0.800000
v -0.700000 0.000000 -0.700000
v -0.100000 0.700000 -0.200000
v -0.700000 0.000000 -0.300000
v -0.100000 0.700000 -0.800000
v -0.450000 1.400000 -0.350000
v -0.450000 1.700000 -0.350000
v -0.450000 1.400000 -0.650000
v -0.450000 1.700000 -0.650000
v -0.150000 1.400000 -0.350000
v -0.150000 1.700000 -0.350000
v -0.150000 1.400000 -0.650000
v -0.150000 1.700000 -0.650000
v -0.500000 1.400000 -0.200000
v -0.500000 1.400000 -0.800000
v -0.100000 1.400000 -0.200000
v -0.100000 1.400000 -0.800000
v -0.587125 3.531934 0.005000
v -0.374993 3.744066 0.005000
v -0.693191 3.638000 0.005000
v -0.481059 3.850132 0.005000
v -0.268927 3.850132 0.005000
v -0.374993 3.956198 0.005000
v -0.056795 4.062263 0.005000
v -0.162861 4.168329 0.005000
v -0.694780 4.060675 0.005000
v -0.587125 4.168330 0.005000
v -0.162861 3.531933 0.005000
v -0.056795 3.638000 0.005000
v -0.750000 0.900000 -0.300000
v -0.750000 0.900000 -0.700000
v -0.450000 0.900000 -0.300000
v -0.450000 0.900000 -0.700000
v 0.150062 4.225000 0.005000
v 0.450062 4.225000 0.005000
v 0.147815 4.375000 0.005000
v 0.600062 4.375000 0.005000
v 0.450062 3.925000 0.005000
v 0.600062 3.775000 0.005000
v 0.150062 3.925000 0.005000
v 0.300062 3.775000 0.005000
v 0.150062 3.325000 0.005000
v 0.300062 3.474999 0.005000
v 0.600062 3.325000 0.005000
v 0.600062 3.474999 0.005000
v -0.500000 0.000000 0.300000
v -0.500000 0.700000 0.800000
v -0.500000 0.000000 0.700000
v -0.500000 0.700000 0.200000
v -0.700000 0.000000 0.300000
v -0.100000 0.700000 0.800000
v -0.700000 0.000000 0.700000
v -0.100000 0.700000 0.200000
v -0.450000 1.400000 0.650000
v -0.450000 1.700000 0.650000
v -0.450000 1.400000 0.350000
v -0.450000 1.700000 0.350000
v -0.150000 1.400000 0.650000
v -0.150000 1.700000 0.650000
v -0.150000 1.400000 0.350000
v -0.150000 1.700000 0.350000
v -0.500000 1.400000 0.800000
v -0.500000 1.400000 0.200000
v -0.100000 1.400000 0.800000
v -0.100000 1.400000 0.200000
v -0.750000 0.900000 0.700000
v -0.750000 0.900000 0.300000
v -0.450000 0.900000 0.700000
v -0.450000 0.900000 0.300000
v 0.105062 4.180000 -0.025000
v 0.405062 4.180000 -0.025000
v 0.102815 4.420000 -0.025000
v 0.645062 4.420000 -0.025000
v 0.405062 3.970000 -0.025000
v 0.645062 3.730000 -0.025000
v 0.105062 3.970000 -0.025000
v 0.345062 3.730000 -0.025000
v 0.105062 3.280000 -0.025000
v 0.345062 3.520000 -0.025000
v 0.645062 3.280000 -0.025000
v 0.645062 3.520000 -0.025000
v -0.587125 3.486934 -0.025000
v -0.374993 3.699066 -0.025000
v -0.738191 3.638000 -0.025000
v -0.526059 3.850132 -0.025000
v -0.223927 3.850132 -0.025000
v -0.374993 4.001198 -0.025000
v -0.011795 4.062263 -0.025000
v -0.162861 4.213330 -0.025000
v -0.739780 4.060675 -0.025000
v -0.587125 4.213330 -0.025000
v -0.162861 3.486933 -0.025000
v -0.011795 3.638000 -0.025000
vn -1.0000 -0.0000 -0.0000
vn -0.0000 -0.0000 -1.0000
vn 1.0000 -0.0000 -0.0000
vn -0.0000 -0.0000 1.0000
vn -0.0000 1.0000 -0.0000
vn 0.9985 -0.0555 -0.0000
vn -0.9985 -0.0555 -0.0000
vt 0.380859 0.855469
vt 0.595703 0.863281
vt 0.375488 0.610790
vt 0.630371 0.609813
vt 0.136231 0.375438
vt 0.635570 0.652705
vt 0.131937 0.882676
s 0
f 149/14/22 150/14/22 152/14/22 151/14/22
f 151/14/23 152/14/23 156/14/23 155/14/23
f 155/14/24 156/14/24 154/14/24 153/14/24
f 153/14/25 154/14/25 150/14/25 149/14/25
f 157/15/22 158/15/22 160/15/22 159/15/22
f 159/15/23 160/15/23 164/15/23 163/15/23
f 163/15/24 164/15/24 162/15/24 161/15/24
f 161/15/25 162/15/25 158/15/25 157/15/25
f 164/15/26 160/15/26 158/15/26 162/15/26
f 165/15/22 166/15/22 168/15/22 167/15/22
f 167/15/23 168/15/23 172/15/23 171/15/23
f 171/15/24 172/15/24 170/15/24 169/15/24
f 169/15/25 170/15/25 166/15/25 165/15/25
f 172/15/26 168/15/26 166/15/26 170/15/26
f 179/16/25 175/16/25 207/16/25 205/16/25
f 173/16/23 177/16/23 206/16/23 208/16/23
f 174/17/25 178/17/25 191/17/25 189/17/25
f 181/18/22 182/18/22 184/18/22 183/18/22
f 183/18/23 184/18/23 188/18/23 187/18/23
f 187/18/24 188/18/24 186/18/24 185/18/24
f 185/18/25 186/18/25 182/18/25 181/18/25
f 188/18/26 184/18/26 182/18/26 186/18/26
f 192/17/26 190/17/26 189/17/26 191/17/26
f 180/17/23 176/17/23 190/17/23 192/17/23
f 178/17/24 180/17/24 192/17/24 191/17/24
f 176/17/22 174/17/22 189/17/22 190/17/22
f 193/19/25 194/19/25 196/19/25 195/19/25
f 196/19/25 194/19/25 197/19/25 198/19/25
f 198/19/25 197/19/25 199/19/25 200/19/25
f 196/19/25 198/19/25 202/19/25 201/19/25
f 197/19/25 194/19/25 203/19/25 204/19/25
f 175/16/27 173/16/27 208/16/27 207/16/27
f 177/16/28 179/16/28 205/16/28 206/16/28
f 207/16/26 208/16/26 206/16/26 205/16/26
f 209/19/25 210/19/25 212/19/25 211/19/25
f 212/19/25 210/19/25 213/19/25 214/19/25
f 214/19/25 213/19/25 215/19/25 216/19/25
f 216/19/25 215/19/25 217/19/25 218/19/25
f 218/19/25 217/19/25 219/19/25 220/19/25
f 227/16/25 223/16/25 243/16/25 241/16/25
f 221/16/23 225/16/23 242/16/23 244/16/23
f 222/17/25 226/17/25 239/17/25 237/17/25
f 229/18/22 230/18/22 232/18/22 231/18/22
f 231/18/23 232/18/23 236/18/23 235/18/23
f 235/18/24 236/18/24 234/18/24 233/18/24
f 233/18/25 234/18/25 230/18/25 229/18/25
f 236/18/26 232/18/26 230/18/26 234/18/26
f 240/17/26 238/17/26 237/17/26 239/17/26
f 228/17/23 224/17/23 238/17/23 240/17/23
f 226/17/24 228/17/24 240/17/24 239/17/24
f 224/17/22 222/17/22 237/17/22 238/17/22
f 223/16/27 221/16/27 244/16/27 243/16/27
f 225/16/28 227/16/28 241/16/28 242/16/28
f 243/16/26 244/16/26 242/16/26 241/16/26
f 245/20/25 246/20/25 248/20/25 247/20/25
f 248/20/25 246/20/25 249/20/25 250/20/25
f 250/20/25 249/20/25 251/20/25 252/20/25
f 252/20/25 251/20/25 253/20/25 254/20/25
f 254/20/25 253/20/25 255/20/25 256/20/25
f 257/20/25 258/20/25 260/20/25 259/20/25
f 260/20/25 258/20/25 261/20/25 262/20/25
f 262/20/25 261/20/25 263/20/25 264/20/25
f 260/20/25 262/20/25 266/20/25 265/20/25
f 261/20/25 258/20/25 267/20/25 268/20/25
o div-two
v -0.100000 0.000000 1.500000
v -0.100000 2.000000 1.500000
v -0.100000 0.000000 -1.500000
v -0.100000 2.000000 -1.500000
v 0.100000 0.000000 1.500000
v 0.100000 2.000000 1.500000
v 0.100000 0.000000 -1.500000
v 0.100000 2.000000 -1.500000
v -0.500000 0.500000 1.400000
v -0.500000 0.700000 1.400000
v -0.500000 0.500000 -1.400000
v -0.500000 0.700000 -1.400000
v 0.500000 0.500000 1.400000
v 0.500000 0.700000 1.400000
v 0.500000 0.500000 -1.400000
v 0.500000 0.700000 -1.400000
v -0.600000 2.000000 1.600000
v -0.600000 2.200000 1.600000
v -0.600000 2.000000 -1.600000
v -0.600000 2.200000 -1.600000
v 0.600000 2.000000 1.600000
v 0.600000 2.200000 1.600000
v 0.600000 2.000000 -1.600000
v 0.600000 2.200000 -1.600000
v 0.700000 0.000000 -0.700000
v 0.100000 0.700000 -0.200000
v 0.700000 0.000000 -0.300000
v 0.100000 0.700000 -0.800000
v 0.500000 0.000000 -0.700000
v 0.500000 0.700000 -0.200000
v 0.500000 0.000000 -0.300000
v 0.500000 0.700000 -0.800000
v 0.150000 1.400000 -0.350000
v 0.150000 1.700000 -0.350000
v 0.150000 1.400000 -0.650000
v 0.150000 1.700000 -0.650000
v 0.450000 1.400000 -0.350000
v 0.450000 1.700000 -0.350000
v 0.450000 1.400000 -0.650000
v 0.450000 1.700000 -0.650000
v 0.100000 1.400000 -0.200000
v 0.100000 1.400000 -0.800000
v 0.500000 1.400000 -0.200000
v 0.500000 1.400000 -0.800000
v -0.749969 3.775000 0.005000
v -0.749968 3.925000 0.005000
v 0.000031 3.775000 0.005000
v 0.000032 3.925000 0.005000
v 0.450000 0.900000 -0.300000
v 0.450000 0.900000 -0.700000
v 0.750000 0.900000 -0.300000
v 0.750000 0.900000 -0.700000
v 0.150031 4.225000 0.005000
v 0.450031 4.225000 0.005000
v 0.147784 4.375000 0.005000
v 0.600031 4.375000 0.005000
v 0.450031 3.925000 0.005000
v 0.600031 3.775000 0.005000
v 0.150031 3.925000 0.005000
v 0.300031 3.775000 0.005000
v 0.150031 3.325000 0.005000
v 0.300031 3.475000 0.005000
v 0.600031 3.325000 0.005000
v 0.600031 3.475000 0.005000
v 0.700000 0.000000 0.300000
v 0.100000 0.700000 0.800000
v 0.700000 0.000000 0.700000
v 0.100000 0.700000 0.200000
v 0.500000 0.000000 0.300000
v 0.500000 0.700000 0.800000
v 0.500000 0.000000 0.700000
v 0.500000 0.700000 0.200000
v 0.150000 1.400000 0.650000
v 0.150000 1.700000 0.650000
v 0.150000 1.400000 0.350000
v 0.150000 1.700000 0.350000
v 0.450000 1.400000 0.650000
v 0.450000 1.700000 0.650000
v 0.450000 1.400000 0.350000
v 0.450000 1.700000 0.350000
v 0.100000 1.400000 0.800000
v 0.100000 1.400000 0.200000
v 0.500000 1.400000 0.800000
v 0.500000 1.400000 0.200000
v 0.450000 0.900000 0.700000
v 0.450000 0.900000 0.300000
v 0.750000 0.900000 0.700000
v 0.750000 0.900000 0.300000
v -0.449969 4.075000 0.005000
v -0.449968 4.225000 0.005000
v -0.299969 4.075000 0.005000
v -0.299968 4.225000 0.005000
v -0.449969 3.475000 0.005000
v -0.449968 3.625000 0.005000
v -0.299969 3.475000 0.005000
v -0.299968 3.625000 0.005000
v 0.105031 4.180000 -0.025000
v 0.405031 4.180000 -0.025000
v 0.102784 4.420000 -0.025000
v 0.645031 4.420000 -0.025000
v 0.405031 3.970001 -0.025000
v 0.645031 3.730000 -0.025000
v 0.105031 3.970001 -0.025000
v 0.345031 3.730000 -0.025000
v 0.105031 3.279999 -0.025000
v 0.345031 3.519999 -0.025000
v 0.645031 3.279999 -0.025000
v 0.645031 3.519999 -0.025000
v -0.254969 4.269999 -0.025000
v -0.254969 4.029999 -0.025000
v -0.494969 4.269999 -0.025000
v -0.494969 4.029999 -0.025000
v -0.494969 3.429999 -0.025000
v -0.494969 3.669999 -0.025000
v -0.254969 3.429999 -0.025000
v -0.254969 3.669999 -0.025000
v 0.045031 3.969999 -0.025000
v 0.045031 3.729999 -0.025000
v -0.794968 3.969999 -0.025000
v -0.794969 3.729999 -0.025000
vn -1.0000 -0.0000 -0.0000
vn -0.0000 -0.0000 -1.0000
vn 1.0000 -0.0000 -0.0000
vn -0.0000 -0.0000 1.0000
vn -0.0000 1.0000 -0.0000
vn 0.9985 -0.0555 -0.0000
vn -0.9985 -0.0555 -0.0000
vt 0.380859 0.855469
vt 0.606445 0.858398
vt 0.631348 0.375438
vt 0.886230 0.374462
vt 0.136231 0.375438
vt 0.874790 0.419739
vt 0.131937 0.882676
s 0
f 269/21/29 270/21/29 272/21/29 271/21/29
f 271/21/30 272/21/30 276/21/30 275/21/30
f 275/21/31 276/21/31 274/21/31 273/21/31
f 273/21/32 274/21/32 270/21/32 269/21/32
f 277/22/29 278/22/29 280/22/29 279/22/29
f 279/22/30 280/22/30 284/22/30 283/22/30
f 283/22/31 284/22/31 282/22/31 281/22/31
f 281/22/32 282/22/32 278/22/32 277/22/32
f 284/22/33 280/22/33 278/22/33 282/22/33
f 285/22/29 286/22/29 288/22/29 287/22/29
f 287/22/30 288/22/30 292/22/30 291/22/30
f 291/22/31 292/22/31 290/22/31 289/22/31
f 289/22/32 290/22/32 286/22/32 285/22/32
f 292/22/33 288/22/33 286/22/33 290/22/33
f 299/23/32 295/23/32 319/23/32 317/23/32
f 293/23/30 297/23/30 318/23/30 320/23/30
f 294/24/32 298/24/32 311/24/32 309/24/32
f 301/25/29 302/25/29 304/25/29 303/25/29
f 303/25/30 304/25/30 308/25/30 307/25/30
f 307/25/31 308/25/31 306/25/31 305/25/31
f 305/25/32 306/25/32 302/25/32 301/25/32
f 308/25/33 304/25/33 302/25/33 306/25/33
f 312/24/33 310/24/33 309/24/33 311/24/33
f 300/24/30 296/24/30 310/24/30 312/24/30
f 298/24/31 300/24/31 312/24/31 311/24/31
f 296/24/29 294/24/29 309/24/29 310/24/29
f 315/26/32 316/26/32 314/26/32 313/26/32
f 295/23/34 293/23/34 320/23/34 319/23/34
f 297/23/35 299/23/35 317/23/35 318/23/35
f 319/23/33 320/23/33 318/23/33 317/23/33
f 321/26/32 322/26/32 324/26/32 323/26/32
f 324/26/32 322/26/32 325/26/32 326/26/32
f 326/26/32 325/26/32 327/26/32 328/26/32
f 328/26/32 327/26/32 329/26/32 330/26/32
f 330/26/32 329/26/32 331/26/32 332/26/32
f 339/23/32 335/23/32 355/23/32 353/23/32
f 333/23/30 337/23/30 354/23/30 356/23/30
f 334/24/32 338/24/32 351/24/32 349/24/32
f 341/25/29 342/25/29 344/25/29 343/25/29
f 343/25/30 344/25/30 348/25/30 347/25/30
f 347/25/31 348/25/31 346/25/31 345/25/31
f 345/25/32 346/25/32 342/25/32 341/25/32
f 348/25/33 344/25/33 342/25/33 346/25/33
f 352/24/33 350/24/33 349/24/33 351/24/33
f 340/24/30 336/24/30 350/24/30 352/24/30
f 338/24/31 340/24/31 352/24/31 351/24/31
f 336/24/29 334/24/29 349/24/29 350/24/29
f 335/23/34 333/23/34 356/23/34 355/23/34
f 337/23/35 339/23/35 353/23/35 354/23/35
f 355/23/33 356/23/33 354/23/33 353/23/33
f 359/26/32 360/26/32 358/26/32 357/26/32
f 363/26/32 364/26/32 362/26/32 361/26/32
f 365/27/32 366/27/32 368/27/32 367/27/32
f 368/27/32 366/27/32 369/27/32 370/27/32
f 370/27/32 369/27/32 371/27/32 372/27/32
f 372/27/32 371/27/32 373/27/32 374/27/32
f 374/27/32 373/27/32 375/27/32 376/27/32
f 387/27/32 388/27/32 386/27/32 385/27/32
f 382/27/32 381/27/32 383/27/32 384/27/32
f 379/27/32 380/27/32 378/27/32 377/27/32
o minus-ten
v -1.000000 0.200000 1.100000
v -1.000000 1.000000 1.100000
v -1.000000 0.200000 -1.300000
v -1.000000 1.000000 -1.300000
v 1.000000 0.200000 1.100000
v 1.000000 1.000000 1.100000
v 1.000000 0.200000 -1.300000
v 1.000000 1.000000 -1.300000
v -0.900000 1.600000 0.600000
v -0.900000 1.600000 -0.800000
v 0.900000 1.600000 0.600000
v 0.900000 1.600000 -0.800000
v -1.000000 0.200000 2.000000
v -1.000000 1.000000 2.000000
v 1.000000 0.200000 2.000000
v 1.000000 1.000000 2.000000
v -1.000000 0.200000 -2.000000
v -1.000000 1.000000 -2.000000
v 1.000000 0.200000 -2.000000
v 1.000000 1.000000 -2.000000
v -1.100000 0.000000 1.500000
v -1.100000 0.700000 1.500000
v -1.100000 0.000000 0.800000
v -1.100000 0.700000 0.800000
v 1.100000 0.000000 1.500000
v 1.100000 0.700000 1.500000
v 1.100000 0.000000 0.800000
v 1.100000 0.700000 0.800000
v -1.100000 0.000000 -0.800000
v -1.100000 0.700000 -0.800000
v -1.100000 0.000000 -1.500000
v -1.100000 0.700000 -1.500000
v 1.100000 0.000000 -0.800000
v 1.100000 0.700000 -0.800000
v 1.100000 0.000000 -1.500000
v 1.100000 0.700000 -1.500000
v -0.962500 3.775001 0.005000
v -0.962500 3.925000 0.005000
v -0.212500 3.775001 0.005000
v -0.212500 3.925000 0.005000
v 0.237500 3.325000 0.005000
v 0.387500 3.475000 0.005000
v 0.237500 4.375000 0.005000
v 0.387500 4.225000 0.005000
v 0.837500 3.325000 0.005000
v 0.687500 3.475000 0.005000
v 0.837500 4.375000 0.005000
v 0.687500 4.224999 0.005000
v -0.062500 3.325000 0.005000
v 0.087500 3.325000 0.005000
v -0.062500 4.375000 0.005000
v 0.087500 4.375000 0.005000
v -0.400000 1.600000 0.100000
v -0.400000 1.600000 -0.200000
v 0.400000 1.600000 0.100000
v 0.400000 1.600000 -0.200000
v -0.300000 1.800000 -0.000000
v -0.300000 1.800000 -0.100000
v 0.300000 1.800000 -0.000000
v 0.300000 1.800000 -0.100000
v -1.007500 3.730001 -0.025000
v -1.007500 3.970001 -0.025000
v -0.167500 3.730001 -0.025000
v -0.167500 3.970001 -0.025000
v 0.192500 3.279999 -0.025000
v 0.432500 3.519999 -0.025000
v 0.192500 4.420000 -0.025000
v 0.432500 4.180000 -0.025000
v 0.882500 3.279999 -0.025000
v 0.642500 3.519999 -0.025000
v 0.882500 4.420000 -0.025000
v 0.642500 4.180000 -0.025000
v -0.107500 3.279999 -0.025000
v 0.132500 3.279999 -0.025000
v -0.107500 4.420000 -0.025000
v 0.132500 4.420000 -0.025000
vn -1.0000 -0.0000 -0.0000
vn -0.0000 1.0000 -0.0000
vn 1.0000 -0.0000 -0.0000
vn -0.0000 0.6402 -0.7682
vn 0.9864 0.1644 -0.0000
vn -0.9864 0.1644 -0.0000
vn -0.0000 0.6402 0.7682
vn -0.0000 -0.0000 1.0000
vn -0.0000 -0.0000 -1.0000
vn -0.0000 0.4472 -0.8944
vn 0.8944 0.4472 -0.0000
vn -0.8944 0.4472 -0.0000
vn -0.0000 0.4472 0.8944
vt 0.857617 0.373047
vt 0.633789 0.353516
vt 0.123047 0.618395
vt 0.857617 0.373047
vt 0.862305 0.874023
vt 0.852940 0.420610
vt 0.370329 0.376953
vt 0.111234 0.858252
s 0
f 389/28/36 390/28/36 392/28/36 391/28/36
f 392/29/37 396/29/37 408/29/37 406/29/37
f 395/28/38 396/28/38 394/28/38 393/28/38
f 390/28/36 389/28/36 401/28/36 402/28/36
f 396/30/39 392/30/39 398/30/39 400/30/39
f 400/29/37 398/29/37 397/29/37 399/29/37
f 394/30/40 396/30/40 400/30/40 399/30/40
f 392/30/41 390/30/41 397/30/41 398/30/41
f 390/30/42 394/30/42 399/30/42 397/30/42
f 403/28/43 404/28/43 402/28/43 401/28/43
f 394/29/37 390/29/37 402/29/37 404/29/37
f 393/28/38 394/28/38 404/28/38 403/28/38
f 405/28/44 406/28/44 408/28/44 407/28/44
f 391/28/36 392/28/36 406/31/36 405/28/36
f 396/28/38 395/28/38 407/28/38 408/28/38
f 409/32/36 410/32/36 412/32/36 411/32/36
f 411/32/44 412/32/44 416/32/44 415/32/44
f 415/32/38 416/32/38 414/32/38 413/32/38
f 413/32/43 414/32/43 410/32/43 409/32/43
f 416/32/37 412/32/37 410/32/37 414/32/37
f 417/32/36 418/32/36 420/32/36 419/32/36
f 419/32/44 420/32/44 424/32/44 423/32/44
f 423/32/38 424/32/38 422/32/38 421/32/38
f 421/32/43 422/32/43 418/32/43 417/32/43
f 424/32/37 420/32/37 418/32/37 422/32/37
f 426/33/43 425/33/43 427/33/43 428/33/43
f 429/33/43 430/33/43 432/33/43 431/33/43
f 430/33/43 429/33/43 433/33/43 434/33/43
f 434/33/43 433/33/43 435/33/43 436/33/43
f 431/33/43 432/33/43 436/33/43 435/33/43
f 437/33/43 438/33/43 440/33/43 439/33/43
f 444/34/45 442/34/45 446/34/45 448/34/45
f 448/34/37 446/34/37 445/34/37 447/34/37
f 443/34/46 444/34/46 448/34/46 447/34/46
f 442/34/47 441/34/47 445/34/47 446/34/47
f 441/34/48 443/34/48 447/34/48 445/34/48
f 450/35/43 449/35/43 451/35/43 452/35/43
f 453/35/43 454/35/43 456/35/43 455/35/43
f 454/35/43 453/35/43 457/35/43 458/35/43
f 458/35/43 457/35/43 459/35/43 460/35/43
f 455/35/43 456/35/43 460/35/43 459/35/43
f 461/35/43 462/35/43 464/35/43 463/35/43
o minus-hundred
v -0.800000 0.000000 1.500000
v -0.800000 2.000000 1.500000
v -0.800000 0.000000 -1.500000
v -0.800000 2.000000 -1.500000
v 0.800000 0.000000 1.500000
v 0.800000 2.000000 1.500000
v 0.800000 0.000000 -1.500000
v 0.800000 2.000000 -1.500000
v -1.000000 2.000000 1.600000
v -0.100000 2.600000 0.600000
v -1.000000 2.000000 -1.600000
v -0.100000 2.600000 -0.600000
v 1.000000 2.000000 1.600000
v 0.100000 2.600000 0.600000
v 1.000000 2.000000 -1.600000
v 0.100000 2.600000 -0.600000
v -1.391667 3.774750 0.005000
v -1.391666 3.924751 0.005000
v -0.641667 3.774750 0.005000
v -0.641666 3.924751 0.005000
v 1.158334 4.374750 0.005000
v 1.158333 3.324750 0.005000
v 1.008334 4.224751 0.005000
v 1.008334 3.474750 0.005000
v -0.491667 3.324750 0.005000
v -0.491666 4.374750 0.005000
v -0.341667 3.324750 0.005000
v -0.341666 4.374750 0.005000
v 0.708334 4.224751 0.005000
v 0.708333 3.474750 0.005000
v 0.558334 4.374750 0.005000
v 0.558334 3.324750 0.005000
v -0.191667 3.324750 0.005000
v -0.191666 4.374750 0.005000
v -0.041667 3.474750 0.005000
v -0.041666 4.224751 0.005000
v 0.258333 3.474750 0.005000
v 0.258334 4.224751 0.005000
v 0.408333 3.324750 0.005000
v 0.408334 4.374750 0.005000
v -0.850000 0.700000 1.100000
v -0.850000 1.700000 1.100000
v -0.850000 0.700000 -1.100000
v -0.850000 1.700000 -1.100000
v 0.850000 0.700000 1.100000
v 0.850000 1.700000 1.100000
v 0.850000 0.700000 -1.100000
v 0.850000 1.700000 -1.100000
v -0.500000 0.700000 1.550000
v -0.500000 1.700000 1.550000
v -0.500000 0.700000 -1.550000
v -0.500000 1.700000 -1.550000
v 0.500000 0.700000 1.550000
v 0.500000 1.700000 1.550000
v 0.500000 0.700000 -1.550000
v 0.500000 1.700000 -1.550000
v 0.963333 4.181250 -0.025000
v 1.203334 4.421249 -0.025000
v 0.963333 3.521249 -0.025000
v 1.203334 3.281249 -0.025000
v 0.753333 4.181250 -0.025000
v 0.513334 4.421249 -0.025000
v 0.753333 3.521249 -0.025000
v 0.513334 3.281249 -0.025000
v -1.436667 3.731251 -0.025000
v -1.436667 3.971251 -0.025000
v -0.596667 3.731251 -0.025000
v -0.596667 3.971251 -0.025000
v -0.236666 3.281249 -0.025000
v 0.003333 3.521249 -0.025000
v -0.236666 4.421249 -0.025000
v 0.003333 4.181250 -0.025000
v 0.453334 3.281249 -0.025000
v 0.213333 3.521249 -0.025000
v 0.453334 4.421249 -0.025000
v 0.213333 4.181250 -0.025000
v -0.536667 3.281249 -0.025000
v -0.296667 3.281249 -0.025000
v -0.536667 4.421249 -0.025000
v -0.296667 4.421249 -0.025000
vn -1.0000 -0.0000 -0.0000
vn -0.0000 -0.0000 -1.0000
vn 1.0000 -0.0000 -0.0000
vn -0.0000 -0.0000 1.0000
vn -0.5547 0.8321 -0.0000
vn -0.0000 0.8575 -0.5145
vn 0.5547 0.8321 -0.0000
vn -0.0000 0.8575 0.5145
vn -0.0000 1.0000 -0.0000
vt 0.380859 0.855469
vt 0.606445 0.858398
vt 0.860838 0.416639
vt 0.638672 0.360352
vt 0.111234 0.858252
s 0
f 465/36/49 466/36/49 468/36/49 467/36/49
f 467/36/50 468/36/50 472/36/50 471/36/50
f 471/36/51 472/36/51 470/36/51 469/36/51
f 469/36/52 470/36/52 466/36/52 465/36/52
f 473/37/53 474/37/53 476/37/53 475/37/53
f 475/37/54 476/37/54 480/37/54 479/37/54
f 479/37/55 480/37/55 478/37/55 477/37/55
f 477/37/56 478/37/56 474/37/56 473/37/56
f 480/37/57 476/37/57 474/37/57 478/37/57
f 483/38/52 484/38/52 482/38/52 481/38/52
f 494/38/52 496/38/52 486/38/52 488/38/52
f 495/38/52 493/38/52 487/38/52 485/38/52
f 486/38/52 485/38/52 487/38/52 488/38/52
f 491/38/52 492/38/52 490/38/52 489/38/52
f 494/38/52 493/38/52 495/38/52 496/38/52
f 499/38/52 500/38/52 498/38/52 497/38/52
f 503/38/52 504/38/52 502/38/52 501/38/52
f 498/38/52 500/38/52 502/38/52 504/38/52
f 499/38/52 497/38/52 503/38/52 501/38/52
f 505/39/49 506/39/49 508/39/49 507/39/49
f 507/39/50 508/39/50 512/39/50 511/39/50
f 511/39/51 512/39/51 510/39/51 509/39/51
f 509/39/52 510/39/52 506/39/52 505/39/52
f 513/39/49 514/39/49 516/39/49 515/39/49
f 512/39/57 508/39/57 506/39/57 510/39/57
f 515/39/50 516/39/50 520/39/50 519/39/50
f 519/39/51 520/39/51 518/39/51 517/39/51
f 517/39/52 518/39/52 514/39/52 513/39/52
f 520/39/57 516/39/57 514/39/57 518/39/57
f 523/40/52 524/40/52 522/40/52 521/40/52
f 528/40/52 527/40/52 525/40/52 526/40/52
f 527/40/52 528/40/52 524/40/52 523/40/52
f 526/40/52 525/40/52 521/40/52 522/40/52
f 530/40/52 529/40/52 531/40/52 532/40/52
f 533/40/52 534/40/52 536/40/52 535/40/52
f 534/40/52 533/40/52 537/40/52 538/40/52
f 538/40/52 537/40/52 539/40/52 540/40/52
f 535/40/52 536/40/52 540/40/52 539/40/52
f 541/40/52 542/40/52 544/40/52 543/40/52
o train
v -1.000000 -0.700000 2.000000
v -1.000000 1.000000 2.000000
v -1.000000 -0.700000 -2.000000
v -1.000000 1.000000 -2.000000
v 1.000000 -0.700000 2.000000
v 1.000000 1.000000 2.000000
v 1.000000 -0.700000 -2.000000
v 1.000000 1.000000 -2.000000
v -0.700000 -1.200000 1.600000
v -0.700000 -0.700000 1.600000
v -0.700000 -1.200000 1.100000
v -0.700000 -0.700000 1.100000
v -0.500000 -1.200000 1.600000
v -0.500000 -0.700000 1.600000
v -0.500000 -1.200000 1.100000
v -0.500000 -0.700000 1.100000
v 0.500000 -1.200000 1.600000
v 0.500000 -0.700000 1.600000
v 0.500000 -1.200000 1.100000
v 0.500000 -0.700000 1.100000
v 0.700000 -1.200000 1.600000
v 0.700000 -0.700000 1.600000
v 0.700000 -1.200000 1.100000
v 0.700000 -0.700000 1.100000
v -0.700000 -1.200000 0.900000
v -0.700000 -0.700000 0.900000
v -0.700000 -1.200000 0.400000
v -0.700000 -0.700000 0.400000
v -0.500000 -1.200000 0.900000
v -0.500000 -0.700000 0.900000
v -0.500000 -1.200000 0.400000
v -0.500000 -0.700000 0.400000
v 0.500000 -1.200000 0.900000
v 0.500000 -0.700000 0.900000
v 0.500000 -1.200000 0.400000
v 0.500000 -0.700000 0.400000
v 0.700000 -1.200000 0.900000
v 0.700000 -0.700000 0.900000
v 0.700000 -1.200000 0.400000
v 0.700000 -0.700000 0.400000
v -0.700000 -1.200000 -0.400000
v -0.700000 -0.700000 -0.400000
v -0.700000 -1.200000 -0.900000
v -0.700000 -0.700000 -0.900000
v -0.500000 -1.200000 -0.400000
v -0.500000 -0.700000 -0.400000
v -0.500000 -1.200000 -0.900000
v -0.500000 -0.700000 -0.900000
v 0.500000 -1.200000 -0.400000
v 0.500000 -0.700000 -0.400000
v 0.500000 -1.200000 -0.900000
v 0.500000 -0.700000 -0.900000
v 0.700000 -1.200000 -0.400000
v 0.700000 -0.700000 -0.400000
v 0.700000 -1.200000 -0.900000
v 0.700000 -0.700000 -0.900000
v -0.700000 -1.200000 -1.100000
v -0.700000 -0.700000 -1.100000
v -0.700000 -1.200000 -1.600000
v -0.700000 -0.700000 -1.600000
v -0.500000 -1.200000 -1.100000
v -0.500000 -0.700000 -1.100000
v -0.500000 -1.200000 -1.600000
v -0.500000 -0.700000 -1.600000
v 0.500000 -1.200000 -1.100000
v 0.500000 -0.700000 -1.100000
v 0.500000 -1.200000 -1.600000
v 0.500000 -0.700000 -1.600000
v 0.700000 -1.200000 -1.100000
v 0.700000 -0.700000 -1.100000
v 0.700000 -1.200000 -1.600000
v 0.700000 -0.700000 -1.600000
v -0.500000 -0.900000 2.000000
v -0.500000 -0.700000 2.000000
v -0.500000 -0.900000 -2.000000
v -0.500000 -0.700000 -2.000000
v 0.500000 -0.900000 2.000000
v 0.500000 -0.700000 2.000000
v 0.500000 -0.900000 -2.000000
v 0.500000 -0.700000 -2.000000
v -0.500000 -1.000000 1.400000
v -0.500000 -0.900000 1.400000
v -0.500000 -1.000000 1.300000
v -0.500000 -0.900000 1.300000
v 0.500000 -1.000000 1.400000
v 0.500000 -0.900000 1.400000
v 0.500000 -1.000000 1.300000
v 0.500000 -0.900000 1.300000
v -0.500000 -1.000000 0.700000
v -0.500000 -0.900000 0.700000
v -0.500000 -1.000000 0.600000
v -0.500000 -0.900000 0.600000
v 0.500000 -1.000000 0.700000
v 0.500000 -0.900000 0.700000
v 0.500000 -1.000000 0.600000
v 0.500000 -0.900000 0.600000
v -0.500000 -1.000000 -0.600000
v -0.500000 -0.900000 -0.600000
v -0.500000 -1.000000 -0.700000
v -0.500000 -0.900000 -0.700000
v 0.500000 -1.000000 -0.600000
v 0.500000 -0.900000 -0.600000
v 0.500000 -1.000000 -0.700000
v 0.500000 -0.900000 -0.700000
v -0.500000 -1.000000 -1.300000
v -0.500000 -0.900000 -1.300000
v -0.500000 -1.000000 -1.400000
v -0.500000 -0.900000 -1.400000
v 0.500000 -1.000000 -1.300000
v 0.500000 -0.900000 -1.300000
v 0.500000 -1.000000 -1.400000
v 0.500000 -0.900000 -1.400000
v 0.820000 0.800000 -2.020000
v 0.820000 -0.200000 -2.020000
v 0.820000 0.800000 2.020000
v 0.820000 -0.200000 2.020000
v -0.820000 0.800000 -2.020000
v -0.820000 -0.200000 -2.020000
v -0.820000 0.800000 2.020000
v -0.820000 -0.200000 2.020000
v 1.020000 0.800000 -1.720000
v 1.020000 -0.200000 -1.720000
v 1.020000 0.800000 1.720000
v 1.020000 -0.200000 1.720000
v -1.020000 0.800000 -1.720000
v -1.020000 -0.200000 -1.720000
v -1.020000 0.800000 1.720000
v -1.020000 -0.200000 1.720000
v -0.600000 1.200000 1.400000
v -0.600000 1.200000 -1.400000
v 0.600000 1.200000 1.400000
v 0.600000 1.200000 -1.400000
v -0.800000 1.000000 1.600000
v -0.800000 1.000000 -1.600000
v 0.800000 1.000000 1.600000
v 0.800000 1.000000 -1.600000
vn -1.0000 -0.0000 -0.0000
vn -0.0000 -0.0000 -1.0000
vn 1.0000 -0.0000 -0.0000
vn -0.0000 -0.0000 1.0000
vn -0.0000 -1.0000 -0.0000
vn -0.0000 1.0000 -0.0000
vn -0.0000 0.7071 0.7071
vn -0.0000 0.7071 -0.7071
vn 0.7071 0.7071 -0.0000
vn -0.7071 0.7071 -0.0000
vt 0.369579 0.866802
vt 0.102584 0.603498
vt 0.861735 0.875269
vt 0.607968 0.847129
vt 0.605814 0.916018
s 0
f 545/41/58 546/41/58 548/41/58 547/41/58
f 547/41/59 548/41/59 552/41/59 551/41/59
f 551/41/60 552/41/60 550/41/60 549/41/60
f 549/41/61 550/41/61 546/41/61 545/41/61
f 547/41/62 551/41/62 549/41/62 545/41/62
f 658/42/60 657/42/60 659/42/60 660/42/60
f 553/43/58 554/43/58 556/43/58 555/43/58
f 555/43/59 556/43/59 560/43/59 559/43/59
f 559/43/60 560/43/60 558/43/60 557/43/60
f 557/43/61 558/43/61 554/43/61 553/43/61
f 555/43/62 559/43/62 557/43/62 553/43/62
f 643/43/62 647/43/62 645/43/62 641/43/62
f 561/43/58 562/43/58 564/43/58 563/43/58
f 563/43/59 564/43/59 568/43/59 567/43/59
f 567/43/60 568/43/60 566/43/60 565/43/60
f 565/43/61 566/43/61 562/43/61 561/43/61
f 563/43/62 567/43/62 565/43/62 561/43/62
f 643/43/59 644/43/59 648/43/59 647/43/59
f 569/43/58 570/43/58 572/43/58 571/43/58
f 571/43/59 572/43/59 576/43/59 575/43/59
f 575/43/60 576/43/60 574/43/60 573/43/60
f 573/43/61 574/43/61 570/43/61 569/43/61
f 571/43/62 575/43/62 573/43/62 569/43/62
f 635/43/59 636/43/59 640/43/59 639/43/59
f 577/43/58 578/43/58 580/43/58 579/43/58
f 579/43/59 580/43/59 584/43/59 583/43/59
f 583/43/60 584/43/60 582/43/60 581/43/60
f 581/43/61 582/43/61 578/43/61 577/43/61
f 579/43/62 583/43/62 581/43/62 577/43/62
f 627/43/62 631/43/62 629/43/62 625/43/62
f 585/43/58 586/43/58 588/43/58 587/43/58
f 587/43/59 588/43/59 592/43/59 591/43/59
f 591/43/60 592/43/60 590/43/60 589/43/60
f 589/43/61 590/43/61 586/43/61 585/43/61
f 587/43/62 591/43/62 589/43/62 585/43/62
f 629/43/61 630/43/61 626/43/61 625/43/61
f 593/43/58 594/43/58 596/43/58 595/43/58
f 595/43/59 596/43/59 600/43/59 599/43/59
f 599/43/60 600/43/60 598/43/60 597/43/60
f 597/43/61 598/43/61 594/43/61 593/43/61
f 595/43/62 599/43/62 597/43/62 593/43/62
f 635/43/62 639/43/62 637/43/62 633/43/62
f 601/43/58 602/43/58 604/43/58 603/43/58
f 603/43/59 604/43/59 608/43/59 607/43/59
f 607/43/60 608/43/60 606/43/60 605/43/60
f 605/43/61 606/43/61 602/43/61 601/43/61
f 603/43/62 607/43/62 605/43/62 601/43/62
f 627/43/59 628/43/59 632/43/59 631/43/59
f 609/43/58 610/43/58 612/43/58 611/43/58
f 611/43/59 612/43/59 616/43/59 615/43/59
f 615/43/60 616/43/60 614/43/60 613/43/60
f 613/43/61 614/43/61 610/43/61 609/43/61
f 611/43/62 615/43/62 613/43/62 609/43/62
f 637/43/61 638/43/61 634/43/61 633/43/61
f 617/44/58 618/44/58 620/44/58 619/44/58
f 619/44/59 620/44/59 624/44/59 623/44/59
f 623/44/60 624/44/60 622/44/60 621/44/60
f 621/44/61 622/44/61 618/44/61 617/44/61
f 619/44/62 623/44/62 621/44/62 617/44/62
f 645/43/61 646/43/61 642/43/61 641/43/61
f 651/43/62 655/43/62 653/43/62 649/43/62
f 651/43/59 652/43/59 656/43/59 655/43/59
f 653/43/61 654/43/61 650/43/61 649/43/61
f 664/42/58 663/42/58 661/42/58 662/42/58
f 662/42/59 661/42/59 657/42/59 658/42/59
f 662/42/62 658/42/62 660/42/62 664/42/62
f 546/41/63 550/41/63 552/41/63 548/41/63
f 663/42/63 659/42/63 657/42/63 661/42/63
f 660/42/61 659/42/61 663/42/61 664/42/61
f 666/42/60 665/42/60 667/42/60 668/42/60
f 672/42/58 671/42/58 669/42/58 670/42/58
f 670/42/59 669/42/59 665/42/59 666/42/59
f 670/42/62 666/42/62 668/42/62 672/42/62
f 671/42/63 667/42/63 665/42/63 669/42/63
f 668/42/61 667/42/61 671/42/61 672/42/61
f 673/45/63 675/45/63 676/45/63 674/45/63
f 673/45/64 677/45/64 679/45/64 675/45/64
f 676/45/65 680/45/65 678/45/65 674/45/65
f 675/45/66 679/45/66 680/45/66 676/45/66
f 674/45/67 678/45/67 677/45/67 673/45/67
f 677/45/62 678/45/62 680/45/62 679/45/62
